<svg width="32" height="32" viewBox="0 0 32 32" fill="none" xmlns="http://www.w3.org/2000/svg">
<path d="M2.27115 21.2682C2.11859 21.2682 1.89668 21.2474 1.60542 21.2058C1.31416 21.1642 1.05064 21.074 0.814861 20.9353C0.565211 20.7966 0.440386 20.5747 0.440386 20.2696C0.440386 20.1031 0.481994 19.9714 0.565211 19.8743C0.620689 19.805 0.676167 19.7703 0.731645 19.7703C0.787122 19.7703 0.807927 19.805 0.794057 19.8743C0.738579 20.0823 0.814861 20.2765 1.0229 20.4568C1.21708 20.651 1.41125 20.7758 1.60542 20.8313C1.82733 20.8868 2.06311 20.9145 2.31276 20.9145C2.85367 20.9145 3.35297 20.7758 3.81066 20.4984C4.28222 20.221 4.69831 19.8743 5.05891 19.4582C4.54574 19.0976 4.08805 18.6469 3.68584 18.1059C3.29749 17.565 3.10332 16.9548 3.10332 16.2752C3.10332 16.0671 3.12413 15.8591 3.16573 15.6511C3.3183 14.9021 3.69971 14.3196 4.30996 13.9035C4.62896 13.6816 4.98957 13.5706 5.39178 13.5706C5.6553 13.5706 5.89108 13.6192 6.09912 13.7163C6.32103 13.7995 6.4736 13.9035 6.55682 14.0283V14.0491C6.55682 14.1046 6.52908 14.1601 6.4736 14.2156C6.41812 14.2572 6.37651 14.2641 6.34877 14.2364C6.25169 14.0561 6.06445 13.9659 5.78706 13.9659C5.6345 13.9659 5.46806 14.0006 5.28776 14.0699C5.10746 14.1254 4.94102 14.2294 4.78846 14.382C4.60816 14.5346 4.46253 14.7287 4.35157 14.9645C4.24062 15.1864 4.15046 15.4222 4.08112 15.6719C3.9979 15.9631 3.95629 16.2474 3.95629 16.5248C3.95629 17.0796 4.08805 17.5789 4.35157 18.0227C4.61509 18.4666 4.94102 18.848 5.32937 19.167C5.82867 18.5428 6.2933 17.8355 6.72325 17.0449C7.16707 16.2544 7.56929 15.4846 7.92989 14.7357C8.30437 13.9728 8.63723 13.3349 8.92849 12.8217C10.0103 10.9216 11.0505 9.45141 12.0491 8.4112C13.0616 7.35712 13.9978 6.83008 14.8577 6.83008C15.038 6.83008 15.2114 6.85088 15.3778 6.89249C15.4333 6.90636 15.4471 6.94103 15.4194 6.99651C15.3917 7.05199 15.35 7.07279 15.2946 7.05893C15.2391 7.04506 15.1836 7.03812 15.1281 7.03812C15.0865 7.02425 15.038 7.01732 14.9825 7.01732C14.5664 7.01732 14.1157 7.22536 13.6302 7.64144C13.1448 8.04366 12.6455 8.60537 12.1323 9.32658C11.6192 10.0339 11.106 10.8522 10.5928 11.7815C10.7731 11.6705 10.9812 11.5942 11.217 11.5526C11.4666 11.4971 11.7232 11.4694 11.9867 11.4694C12.3889 11.4694 12.7911 11.511 13.1933 11.5942C13.6094 11.6775 13.9562 11.7745 14.2336 11.8855C14.8577 11.4001 15.357 10.7967 15.7315 10.0755C16.1198 9.35432 16.314 8.66085 16.314 7.99511C16.314 7.32938 16.1406 6.79541 15.7939 6.39319C15.4471 5.99098 15.0102 5.68585 14.4832 5.47781C13.9562 5.26977 13.4014 5.13107 12.8189 5.06172C12.2364 4.99238 11.7024 4.9577 11.217 4.9577C10.4403 4.9577 9.66357 5.04092 8.88688 5.20735C8.12406 5.37379 7.41672 5.6165 6.76486 5.9355C6.11299 6.24063 5.55821 6.6151 5.10052 7.05893C4.72605 7.41953 4.37238 7.89803 4.03951 8.49441C3.70664 9.0908 3.54021 9.69412 3.54021 10.3044C3.54021 10.554 3.58182 10.7967 3.66503 11.0325C3.80373 11.4209 4.05338 11.726 4.41398 11.9479C4.77459 12.1559 5.19067 12.26 5.66224 12.26C5.84254 12.26 6.02978 12.2392 6.22395 12.1976C6.41812 12.1559 6.61229 12.1074 6.80647 12.0519H6.84807C6.88968 12.0519 6.91049 12.0727 6.91049 12.1143C6.91049 12.1698 6.87581 12.2114 6.80647 12.2392C6.43199 12.364 6.04365 12.4264 5.64143 12.4264C5.16987 12.4264 4.72605 12.3363 4.30996 12.1559C3.89388 11.9618 3.55408 11.6775 3.29056 11.303C3.02704 10.9285 2.89528 10.4639 2.89528 9.9091C2.89528 9.47914 2.95076 9.08386 3.06171 8.72326C3.18654 8.36265 3.35297 8.02285 3.56101 7.70385C4.01871 7.02425 4.66363 6.46254 5.4958 6.01872C6.32797 5.57489 7.25029 5.24203 8.26276 5.02011C9.27523 4.7982 10.2808 4.68725 11.2794 4.68725C11.7509 4.68725 12.2918 4.72192 12.9021 4.79127C13.5262 4.86062 14.1434 4.99238 14.7537 5.18655C15.3639 5.36685 15.8979 5.63037 16.3556 5.97711C16.8271 6.32384 17.1531 6.76767 17.3334 7.30857C17.4166 7.57209 17.4582 7.85642 17.4582 8.16155C17.4582 8.71632 17.3195 9.27804 17.0421 9.84668C16.7647 10.4015 16.418 10.8869 16.0019 11.303C15.6829 11.6497 15.2946 11.9548 14.8369 12.2184C15.4887 12.5374 15.9742 12.9742 16.2932 13.529C16.6122 14.0699 16.7717 14.6525 16.7717 15.2766C16.7717 15.9284 16.6052 16.5803 16.2724 17.2322C15.9395 17.884 15.4471 18.4735 14.7953 19.0005C14.1573 19.5276 13.3598 19.9298 12.4028 20.2072C11.959 20.332 11.4805 20.4291 10.9673 20.4984C10.468 20.5678 9.95483 20.6024 9.42779 20.6024C8.88688 20.6024 8.34597 20.5608 7.80507 20.4776C7.26416 20.3944 6.74405 20.2626 6.24475 20.0823C6.16154 20.0546 6.07138 20.0199 5.9743 19.9783C5.87721 19.9367 5.78706 19.8882 5.70384 19.8327C4.95489 20.4984 4.14353 20.9353 3.26975 21.1434C2.93689 21.2266 2.60402 21.2682 2.27115 21.2682ZM11.4458 13.0089C11.8896 13.0089 12.3126 12.9396 12.7149 12.8009C13.1309 12.6483 13.5193 12.4403 13.8799 12.1768C13.6164 12.0103 13.3182 11.8994 12.9853 11.8439C12.6524 11.7745 12.271 11.7399 11.8411 11.7399C11.4389 11.7399 11.1199 11.8231 10.8841 11.9895C10.6483 12.1559 10.5304 12.3293 10.5304 12.5096C10.5304 12.6483 10.5998 12.7662 10.7385 12.8633C10.891 12.9604 11.1268 13.0089 11.4458 13.0089ZM12.2988 19.8119C13.0061 19.5068 13.5956 19.1045 14.0671 18.6052C14.5526 18.0921 14.9201 17.5304 15.1697 16.9201C15.4194 16.3099 15.5442 15.7135 15.5442 15.1309C15.5442 14.6039 15.4402 14.1115 15.2322 13.6539C15.038 13.1962 14.7329 12.8147 14.3168 12.5096C13.8868 12.7177 13.4153 12.891 12.9021 13.0297C12.4028 13.1684 11.8896 13.2378 11.3626 13.2378C10.9742 13.2378 10.683 13.1892 10.4888 13.0921C10.2946 12.9812 10.1629 12.8702 10.0935 12.7593C9.91322 13.106 9.73986 13.4666 9.57342 13.8411C9.40699 14.2156 9.23362 14.59 9.05332 14.9645C8.69271 15.7135 8.25582 16.504 7.74265 17.3362C7.24335 18.1684 6.6539 18.9104 5.9743 19.5622C6.05751 19.6177 6.14073 19.6593 6.22395 19.6871C6.30717 19.7287 6.39038 19.7633 6.4736 19.7911C6.93129 19.9575 7.41672 20.0823 7.92989 20.1656C8.44306 20.2488 8.95623 20.2904 9.4694 20.2904C10.0103 20.2904 10.5235 20.2418 11.0089 20.1448C11.5082 20.0615 11.9382 19.9506 12.2988 19.8119Z" fill="#FEF5F5"/>
<path d="M10.2915 29.6648C10.1827 29.6105 10.0966 29.5334 10.0331 29.4337C9.97872 29.334 9.95152 29.2343 9.95152 29.1345C9.95152 29.0348 9.97872 28.9532 10.0331 28.8898C10.0603 28.8535 10.092 28.8309 10.1283 28.8218C10.1736 28.8218 10.1872 28.8445 10.1691 28.8898C10.1419 29.0258 10.2053 29.1527 10.3594 29.2705C10.5136 29.3884 10.6541 29.4654 10.781 29.5017C10.9169 29.5289 11.0529 29.5425 11.1889 29.5425C11.4699 29.5425 11.7192 29.5017 11.9368 29.4201C12.2631 29.3113 12.5849 29.0892 12.9022 28.7538C13.2285 28.4184 13.5322 28.0377 13.8132 27.6116C14.0852 27.1946 14.3526 26.7232 14.6155 26.1975C14.8874 25.6626 15.1594 25.1142 15.4313 24.5522C15.7124 23.9811 16.0115 23.4326 16.3288 22.9069C16.6461 22.372 16.986 21.8961 17.3486 21.4791C17.7203 21.0531 18.1282 20.7267 18.5724 20.5001C18.1282 20.4457 17.6704 20.3732 17.199 20.2825C16.7367 20.1828 16.3469 20.1058 16.0296 20.0514C15.8302 20.0151 15.6036 19.9924 15.3498 19.9834C15.0959 19.9653 14.8285 19.9562 14.5475 19.9562C14.0489 19.9562 13.5503 19.9879 13.0518 20.0514C12.5532 20.1058 12.1543 20.2009 11.8552 20.3369C11.3294 20.5726 10.8762 20.899 10.4954 21.3159C10.1147 21.7239 9.92433 22.236 9.92433 22.8525C9.92433 23.1063 9.96512 23.3239 10.0467 23.5052C10.1374 23.6774 10.2507 23.8088 10.3866 23.8995C10.5407 23.9901 10.6994 24.0355 10.8626 24.0355C11.062 24.0355 11.266 23.9765 11.4744 23.8587C11.6829 23.7318 11.8642 23.5505 12.0184 23.3148C12.0909 23.1969 12.1589 23.0247 12.2223 22.7981C12.2948 22.5715 12.3311 22.3403 12.3311 22.1046C12.3311 21.9777 12.3175 21.8553 12.2903 21.7375C12.2722 21.6196 12.2314 21.5154 12.1679 21.4247C12.1498 21.3885 12.1407 21.3703 12.1407 21.3703C12.1407 21.3431 12.1543 21.3295 12.1815 21.3295C12.2178 21.3295 12.2495 21.3522 12.2767 21.3975C12.322 21.461 12.3674 21.5607 12.4127 21.6967C12.4671 21.8236 12.5033 21.9414 12.5215 22.0502C12.5305 22.1046 12.5351 22.159 12.5351 22.2134C12.5441 22.2678 12.5487 22.3222 12.5487 22.3766C12.5487 22.5579 12.526 22.7437 12.4807 22.9341C12.4353 23.1154 12.3628 23.2831 12.2631 23.4372C12.1181 23.6819 11.9232 23.8678 11.6784 23.9947C11.4337 24.1125 11.1798 24.1714 10.9169 24.1714C10.7085 24.1714 10.509 24.1306 10.3187 24.0491C10.0376 23.9131 9.82914 23.7182 9.69317 23.4644C9.56626 23.2105 9.5028 22.9341 9.5028 22.6349C9.5028 22.4355 9.52546 22.236 9.57079 22.0366C9.62518 21.8281 9.6977 21.6287 9.78835 21.4383C9.94246 21.1029 10.1555 20.8083 10.4274 20.5545C10.6994 20.3007 10.9713 20.1012 11.2433 19.9562C11.6965 19.7114 12.1498 19.5392 12.603 19.4395C13.0654 19.3398 13.5322 19.2899 14.0036 19.2899C14.3934 19.2899 14.7877 19.3171 15.1866 19.3715C15.5854 19.4259 15.9888 19.5029 16.3968 19.6027C16.8591 19.7114 17.335 19.8338 17.8245 19.9698C18.0693 20.0332 18.3593 20.1058 18.6948 20.1873C19.0392 20.2599 19.3656 20.2961 19.6738 20.2961C19.8551 20.2961 20.0318 20.2735 20.2041 20.2281C20.3854 20.1737 20.5259 20.0695 20.6256 19.9154C20.6619 19.861 20.68 19.793 20.68 19.7114C20.68 19.6661 20.6755 19.6253 20.6664 19.5891C20.6664 19.5437 20.6709 19.5165 20.68 19.5075C20.6981 19.4893 20.7163 19.4803 20.7344 19.4803C20.7706 19.4803 20.8024 19.5075 20.8296 19.5619C20.8568 19.5981 20.8704 19.6661 20.8704 19.7658C20.8704 19.8293 20.8658 19.8746 20.8568 19.9018C20.8024 20.0922 20.68 20.2372 20.4896 20.3369C20.3083 20.4366 20.127 20.5001 19.9457 20.5273C19.8732 20.5363 19.7916 20.5454 19.701 20.5545C19.6194 20.5545 19.5333 20.5545 19.4426 20.5545C19.3701 20.5545 19.293 20.5545 19.2115 20.5545C19.1299 20.5545 19.0483 20.5499 18.9667 20.5409C18.6676 20.6769 18.3548 20.9352 18.0285 21.3159C17.6296 21.7873 17.2851 22.2904 16.9951 22.8253C16.705 23.351 16.4376 23.8949 16.1928 24.457C15.948 25.0099 15.6942 25.5584 15.4313 26.1023C15.1775 26.6462 14.8738 27.1674 14.5203 27.666C14.203 28.1102 13.845 28.5091 13.4461 28.8626C13.0472 29.2161 12.594 29.4835 12.0863 29.6648C11.8053 29.7646 11.4699 29.8144 11.0801 29.8144C10.926 29.8144 10.781 29.8008 10.645 29.7736C10.509 29.7555 10.3912 29.7192 10.2915 29.6648ZM18.7891 28.5498C18.5353 28.5498 18.3494 28.4683 18.2316 28.3051C18.1137 28.1329 18.0548 27.9244 18.0548 27.6796C18.0548 27.6071 18.0594 27.5346 18.0684 27.462C18.0865 27.3805 18.1047 27.2989 18.1228 27.2173C18.2225 26.8547 18.3766 26.4513 18.5851 26.0071C18.8027 25.5539 19.0112 25.1505 19.2106 24.7969C19.3285 24.5975 19.4372 24.457 19.537 24.3754C19.6367 24.2847 19.7454 24.2213 19.8633 24.185C19.9811 24.1397 20.1216 24.0898 20.2848 24.0355C20.3301 24.0173 20.3755 24.0037 20.4208 23.9947C20.4661 23.9856 20.516 23.9765 20.5704 23.9675C20.3891 24.1488 20.2032 24.3663 20.0129 24.6202C19.8316 24.874 19.6321 25.223 19.4146 25.6672C19.2967 25.9029 19.1789 26.1657 19.061 26.4558C18.9523 26.7459 18.8571 27.0179 18.7755 27.2717C18.6939 27.5255 18.6486 27.7249 18.6395 27.87C18.6304 28.0422 18.6531 28.1646 18.7075 28.2371C18.7619 28.3096 18.8344 28.3459 18.9251 28.3459C19.0792 28.3459 19.2242 28.2915 19.3602 28.1827C19.5052 28.0739 19.6321 27.9606 19.7409 27.8428C19.9403 27.6161 20.1262 27.3669 20.2984 27.0949C20.4797 26.823 20.6565 26.5329 20.8287 26.2247C20.8559 26.1884 20.8786 26.1703 20.8967 26.1703C20.933 26.1703 20.9511 26.1975 20.9511 26.2519C20.9511 26.2972 20.942 26.3334 20.9239 26.3606C20.7607 26.6598 20.5885 26.9589 20.4072 27.2581C20.2259 27.5572 20.0038 27.8382 19.7409 28.1011C19.6231 28.219 19.4826 28.3232 19.3194 28.4139C19.1653 28.5045 18.9885 28.5498 18.7891 28.5498ZM20.448 23.206C20.3483 23.206 20.2622 23.1697 20.1896 23.0972C20.1262 23.0247 20.0945 22.9386 20.0945 22.8389C20.0945 22.712 20.1443 22.5986 20.244 22.4989C20.3528 22.3992 20.4707 22.3403 20.5976 22.3222C20.6973 22.3222 20.7789 22.3584 20.8423 22.4309C20.9148 22.4944 20.9511 22.5805 20.9511 22.6893C20.9511 22.8071 20.9012 22.925 20.8015 23.0428C20.7018 23.1516 20.584 23.206 20.448 23.206ZM25.8173 28.5498C25.5454 28.5498 25.3369 28.4683 25.1918 28.3051C25.0468 28.1329 24.9743 27.9198 24.9743 27.666C24.9743 27.385 25.0468 27.104 25.1918 26.823C25.3369 26.5329 25.5001 26.2519 25.6814 25.9799C25.8717 25.708 26.0394 25.4496 26.1845 25.2048C26.3295 24.9601 26.402 24.7425 26.402 24.5522C26.402 24.4796 26.3839 24.4162 26.3476 24.3618C26.3114 24.2983 26.2434 24.2666 26.1437 24.2666C25.8536 24.2666 25.5499 24.4026 25.2326 24.6745C24.9244 24.9374 24.6253 25.2774 24.3352 25.6944C24.0451 26.1114 23.7822 26.5465 23.5465 26.9997C23.3199 27.453 23.1431 27.87 23.0162 28.2507C22.8712 28.2144 22.7715 28.1601 22.7171 28.0875C22.6718 28.0059 22.6491 27.9198 22.6491 27.8292C22.6491 27.6841 22.6672 27.5436 22.7035 27.4077C22.7488 27.2717 22.8168 27.104 22.9075 26.9045C22.9981 26.7051 23.1159 26.4513 23.261 26.1431C23.406 25.8258 23.5783 25.4179 23.7777 24.9193C23.8049 24.8468 23.823 24.7833 23.8321 24.7289C23.8411 24.6745 23.8457 24.6247 23.8457 24.5794C23.8457 24.3709 23.7596 24.2666 23.5873 24.2666C23.3698 24.2666 23.1477 24.3573 22.921 24.5386C22.6944 24.7108 22.4723 24.942 22.2548 25.232C22.0463 25.5221 21.8468 25.8349 21.6565 26.1703C21.4661 26.5057 21.2939 26.8366 21.1398 27.1629C20.9857 27.4802 20.8588 27.7567 20.759 27.9923C20.6684 28.2008 20.5596 28.3368 20.4327 28.4003C20.3058 28.4547 20.1834 28.4819 20.0656 28.4819C20.0293 28.4819 19.984 28.4773 19.9296 28.4683C19.8843 28.4683 19.8389 28.4683 19.7936 28.4683C19.9749 28.1057 20.1653 27.7113 20.3647 27.2853C20.5732 26.8502 20.7636 26.415 20.9358 25.9799C21.108 25.5448 21.2485 25.1278 21.3573 24.7289C21.4661 24.3301 21.5205 23.9856 21.5205 23.6955C21.5205 23.6593 21.516 23.6321 21.5069 23.6139C21.5069 23.5958 21.5069 23.5777 21.5069 23.5595C21.5069 23.5323 21.516 23.5187 21.5341 23.5187C21.6247 23.5187 21.6973 23.5777 21.7517 23.6955C21.806 23.8043 21.8423 23.9312 21.8604 24.0762C21.8876 24.2122 21.9012 24.321 21.9012 24.4026C21.9012 24.6292 21.874 24.8649 21.8196 25.1097C21.7653 25.3454 21.7018 25.5448 21.6293 25.708C21.9738 25.2456 22.3273 24.8513 22.6899 24.525C23.0616 24.1986 23.4287 24.0355 23.7913 24.0355C24.036 24.0355 24.2128 24.0853 24.3216 24.185C24.4304 24.2847 24.4848 24.4253 24.4848 24.6066C24.4848 24.7335 24.4621 24.8604 24.4168 24.9873C24.3805 25.1142 24.3171 25.2864 24.2264 25.504C24.5709 25.0326 24.9063 24.67 25.2326 24.4162C25.568 24.1624 25.8989 24.0355 26.2253 24.0355C26.4881 24.0355 26.683 24.0944 26.81 24.2122C26.9459 24.3301 27.0139 24.4887 27.0139 24.6881C27.0139 24.9057 26.9414 25.1641 26.7964 25.4632C26.6604 25.7533 26.5017 26.057 26.3204 26.3742C26.1391 26.6824 25.976 26.9771 25.8309 27.2581C25.695 27.53 25.627 27.7567 25.627 27.938C25.627 28.0377 25.6496 28.1283 25.695 28.2099C25.7403 28.2915 25.8219 28.3323 25.9397 28.3323C26.0938 28.3323 26.2389 28.2824 26.3748 28.1827C26.5199 28.0739 26.6422 27.9606 26.742 27.8428C26.9505 27.6161 27.1408 27.3669 27.3131 27.0949C27.4944 26.8139 27.6711 26.5193 27.8434 26.2111C27.8706 26.1748 27.8887 26.1567 27.8978 26.1567C27.934 26.1567 27.9521 26.1975 27.9521 26.2791C27.9521 26.3334 27.9431 26.3742 27.925 26.4014C27.7618 26.7006 27.5895 26.9952 27.4082 27.2853C27.2269 27.5663 27.0048 27.8382 26.742 28.1011C26.6241 28.219 26.4881 28.3232 26.334 28.4139C26.1799 28.5045 26.0077 28.5498 25.8173 28.5498ZM29.0488 28.577C28.523 28.577 28.1513 28.4411 27.9338 28.1691C27.825 28.0513 27.7479 27.9108 27.7026 27.7476C27.6573 27.5844 27.6346 27.4167 27.6346 27.2445C27.6346 27.0269 27.6618 26.8094 27.7162 26.5918C27.7706 26.3652 27.8386 26.1567 27.9202 25.9663C28.0471 25.6672 28.2148 25.368 28.4233 25.0689C28.6318 24.7607 28.8811 24.5023 29.1711 24.2938C29.4703 24.0853 29.7966 23.9811 30.1502 23.9811C30.3859 23.9811 30.5717 24.04 30.7077 24.1578C30.8436 24.2757 30.9116 24.457 30.9116 24.7017C30.9116 24.9828 30.8255 25.2683 30.6533 25.5584C30.481 25.8394 30.2635 26.0751 30.0006 26.2655C29.7377 26.4558 29.4658 26.551 29.1847 26.551C28.9309 26.551 28.7088 26.4604 28.5185 26.2791C28.4641 26.4241 28.4187 26.5873 28.3825 26.7686C28.3462 26.9408 28.3281 27.1176 28.3281 27.2989C28.3281 27.5799 28.3825 27.8246 28.4913 28.0331C28.6091 28.2416 28.8176 28.3459 29.1168 28.3459C29.3343 28.3459 29.5428 28.2915 29.7422 28.1827C29.9507 28.0649 30.1366 27.9244 30.2997 27.7612C30.481 27.5708 30.6533 27.3669 30.8165 27.1493C30.9796 26.9317 31.1383 26.6779 31.2924 26.3878C31.3105 26.3606 31.3241 26.347 31.3332 26.347C31.3694 26.347 31.3875 26.3878 31.3875 26.4694C31.3875 26.5238 31.3694 26.5827 31.3332 26.6462C31.1972 26.8909 31.0385 27.1402 30.8572 27.3941C30.6759 27.6388 30.4901 27.8518 30.2997 28.0331C30.1275 28.1963 29.9417 28.3278 29.7422 28.4275C29.5428 28.5272 29.3117 28.577 29.0488 28.577ZM28.5865 26.0751C28.6499 26.1657 28.7224 26.2337 28.804 26.2791C28.8947 26.3153 28.9853 26.3334 29.076 26.3334C29.2935 26.3334 29.5202 26.2519 29.7558 26.0887C29.9915 25.9165 30.1819 25.717 30.3269 25.4904C30.3904 25.3907 30.4448 25.2592 30.4901 25.0961C30.5445 24.9329 30.5717 24.7788 30.5717 24.6337C30.5717 24.5068 30.5445 24.3981 30.4901 24.3074C30.4448 24.2077 30.3496 24.1578 30.2046 24.1578C30.0414 24.1578 29.8465 24.2575 29.6199 24.457C29.4023 24.6564 29.1938 24.9148 28.9944 25.232C28.9309 25.3408 28.8584 25.4677 28.7768 25.6128C28.7043 25.7578 28.6408 25.9119 28.5865 26.0751Z" fill="#FEF5F5"/>
</svg>
