<svg width="50" height="50" viewBox="0 0 50 50" fill="none" xmlns="http://www.w3.org/2000/svg">
<rect width="50" height="50" rx="25" fill="#C2410C"/>
<path fill-rule="evenodd" clip-rule="evenodd" d="M15.5714 13C14.8894 13 14.2354 13.2709 13.7532 13.7532C13.2709 14.2354 13 14.8894 13 15.5714V25.8571C13 26.5391 13.2709 27.1932 13.7532 27.6754C14.2354 28.1577 14.8894 28.4286 15.5714 28.4286H34.4286C35.1106 28.4286 35.7646 28.1577 36.2468 27.6754C36.7291 27.1932 37 26.5391 37 25.8571V15.5714C37 14.8894 36.7291 14.2354 36.2468 13.7532C35.7646 13.2709 35.1106 13 34.4286 13H15.5714ZM26.0714 15.4926C26.0714 15.2084 25.9585 14.9359 25.7576 14.735C25.5567 14.534 25.2842 14.4211 25 14.4211C24.7158 14.4211 24.4433 14.534 24.2424 14.735C24.0415 14.9359 23.9286 15.2084 23.9286 15.4926V16.1783C23.3116 16.2506 22.7403 16.5392 22.316 16.9929C21.8917 17.4466 21.642 18.036 21.6112 18.6564C21.5803 19.2767 21.7704 19.888 22.1476 20.3815C22.5248 20.875 23.0647 21.2189 23.6714 21.352L25.7234 21.7994C25.8886 21.8308 26.036 21.9232 26.136 22.0583C26.2361 22.1935 26.2816 22.3613 26.2635 22.5285C26.2453 22.6957 26.1648 22.8499 26.038 22.9603C25.9113 23.0708 25.7475 23.1294 25.5794 23.1246H24.4206C24.2819 23.125 24.1466 23.0824 24.0332 23.0025C23.9199 22.9227 23.8342 22.8096 23.788 22.6789C23.6867 22.42 23.4888 22.2107 23.2361 22.0951C22.9833 21.9794 22.6956 21.9665 22.4335 22.0591C22.1714 22.1516 21.9556 22.3424 21.8315 22.5911C21.7074 22.8398 21.6849 23.127 21.7686 23.392C22.1011 24.3349 22.9223 25.0463 23.9286 25.2246V25.936C23.9286 26.2202 24.0415 26.4927 24.2424 26.6936C24.4433 26.8945 24.7158 27.0074 25 27.0074C25.2842 27.0074 25.5567 26.8945 25.7576 26.6936C25.9585 26.4927 26.0714 26.2202 26.0714 25.936V25.2229C26.7128 25.1092 27.2949 24.7765 27.7183 24.2815C28.1417 23.7866 28.3802 23.16 28.3932 22.5088C28.4061 21.8575 28.1927 21.222 27.7893 20.7106C27.3859 20.1992 26.8175 19.8436 26.1811 19.7046L24.1291 19.2571C24.0122 19.2326 23.9086 19.1655 23.8383 19.0688C23.7681 18.9721 23.7363 18.8528 23.7491 18.734C23.762 18.6152 23.8185 18.5054 23.9077 18.426C23.9969 18.3465 24.1125 18.303 24.232 18.304H25.5794C25.7181 18.3035 25.8534 18.3462 25.9668 18.426C26.0801 18.5059 26.1658 18.619 26.212 18.7497C26.2553 18.8868 26.3257 19.0137 26.4191 19.123C26.5124 19.2323 26.6268 19.3217 26.7554 19.3858C26.884 19.45 27.0243 19.4876 27.1677 19.4964C27.3112 19.5053 27.4549 19.4852 27.5905 19.4373C27.726 19.3895 27.8505 19.3148 27.9566 19.2179C28.0627 19.1209 28.1482 19.0036 28.208 18.8729C28.2678 18.7422 28.3007 18.6008 28.3047 18.4571C28.3087 18.3134 28.2838 18.1704 28.2314 18.0366C28.0658 17.5673 27.7786 17.1503 27.3991 16.8284C27.0196 16.5064 26.5614 16.2909 26.0714 16.204V15.4926ZM17.7143 19.4286C18.0553 19.4286 18.3823 19.564 18.6234 19.8051C18.8645 20.0463 19 20.3733 19 20.7143C19 21.0553 18.8645 21.3823 18.6234 21.6234C18.3823 21.8645 18.0553 22 17.7143 22C17.3733 22 17.0463 21.8645 16.8051 21.6234C16.564 21.3823 16.4286 21.0553 16.4286 20.7143C16.4286 20.3733 16.564 20.0463 16.8051 19.8051C17.0463 19.564 17.3733 19.4286 17.7143 19.4286ZM32.2857 19.4286C32.6267 19.4286 32.9537 19.564 33.1949 19.8051C33.436 20.0463 33.5714 20.3733 33.5714 20.7143C33.5714 21.0553 33.436 21.3823 33.1949 21.6234C32.9537 21.8645 32.6267 22 32.2857 22C31.9447 22 31.6177 21.8645 31.3766 21.6234C31.1355 21.3823 31 21.0553 31 20.7143C31 20.3733 31.1355 20.0463 31.3766 19.8051C31.6177 19.564 31.9447 19.4286 32.2857 19.4286ZM20.7143 29.9286C21.3057 29.9286 21.7857 30.4086 21.7857 31V34.4286C21.7857 34.7127 21.6728 34.9853 21.4719 35.1862C21.271 35.3871 20.9984 35.5 20.7143 35.5C20.4301 35.5 20.1576 35.3871 19.9567 35.1862C19.7557 34.9853 19.6429 34.7127 19.6429 34.4286V31C19.6429 30.4086 20.1229 29.9286 20.7143 29.9286ZM30.3571 31C30.3571 30.8593 30.3294 30.72 30.2756 30.59C30.2217 30.46 30.1428 30.3419 30.0433 30.2424C29.9438 30.1429 29.8257 30.064 29.6957 30.0101C29.5657 29.9563 29.4264 29.9286 29.2857 29.9286C29.145 29.9286 29.0057 29.9563 28.8757 30.0101C28.7457 30.064 28.6276 30.1429 28.5281 30.2424C28.4286 30.3419 28.3497 30.46 28.2958 30.59C28.242 30.72 28.2143 30.8593 28.2143 31V34.4286C28.2143 34.5693 28.242 34.7086 28.2958 34.8386C28.3497 34.9686 28.4286 35.0867 28.5281 35.1862C28.6276 35.2857 28.7457 35.3646 28.8757 35.4184C29.0057 35.4723 29.145 35.5 29.2857 35.5C29.4264 35.5 29.5657 35.4723 29.6957 35.4184C29.8257 35.3646 29.9438 35.2857 30.0433 35.1862C30.1428 35.0867 30.2217 34.9686 30.2756 34.8386C30.3294 34.7086 30.3571 34.5693 30.3571 34.4286V31ZM26.0714 32.2857C26.0714 32.0016 25.9585 31.729 25.7576 31.5281C25.5567 31.3272 25.2842 31.2143 25 31.2143C24.7158 31.2143 24.4433 31.3272 24.2424 31.5281C24.0415 31.729 23.9286 32.0016 23.9286 32.2857V35.7143C23.9286 35.9984 24.0415 36.271 24.2424 36.4719C24.4433 36.6728 24.7158 36.7857 25 36.7857C25.2842 36.7857 25.5567 36.6728 25.7576 36.4719C25.9585 36.271 26.0714 35.9984 26.0714 35.7143V32.2857Z" fill="#FCFBFA"/>
</svg>
