<svg width="50" height="50" viewBox="0 0 50 50" fill="none" xmlns="http://www.w3.org/2000/svg">
<rect width="50" height="50" rx="25" fill="#C2410C"/>
<path d="M32 17H31V16C31 15.4 30.6 15 30 15C29.4 15 29 15.4 29 16V17H21V16C21 15.4 20.6 15 20 15C19.4 15 19 15.4 19 16V17H18C16.3 17 15 18.3 15 20V21H35V20C35 18.3 33.7 17 32 17ZM15 32C15 33.7 16.3 35 18 35H32C33.7 35 35 33.7 35 32V23H15V32ZM30 25C30.6 25 31 25.4 31 26C31 26.6 30.6 27 30 27C29.4 27 29 26.6 29 26C29 25.4 29.4 25 30 25ZM30 29C30.6 29 31 29.4 31 30C31 30.6 30.6 31 30 31C29.4 31 29 30.6 29 30C29 29.4 29.4 29 30 29ZM25 25C25.6 25 26 25.4 26 26C26 26.6 25.6 27 25 27C24.4 27 24 26.6 24 26C24 25.4 24.4 25 25 25ZM25 29C25.6 29 26 29.4 26 30C26 30.6 25.6 31 25 31C24.4 31 24 30.6 24 30C24 29.4 24.4 29 25 29ZM20 25C20.6 25 21 25.4 21 26C21 26.6 20.6 27 20 27C19.4 27 19 26.6 19 26C19 25.4 19.4 25 20 25ZM20 29C20.6 29 21 29.4 21 30C21 30.6 20.6 31 20 31C19.4 31 19 30.6 19 30C19 29.4 19.4 29 20 29Z" fill="#FCFBFA"/>
</svg>
