<svg width="200" height="53" viewBox="0 0 200 53" fill="none" xmlns="http://www.w3.org/2000/svg">
<path d="M5.42647 42.7447C5.04412 42.7447 4.48797 42.6925 3.75802 42.5882C3.02807 42.484 2.36765 42.258 1.77674 41.9104C1.15107 41.5628 0.838234 41.0067 0.838234 40.242C0.838234 39.8249 0.942513 39.4947 1.15107 39.2513C1.29011 39.0775 1.42914 38.9906 1.56818 38.9906C1.70722 38.9906 1.75936 39.0775 1.7246 39.2513C1.58556 39.7727 1.77674 40.2594 2.29813 40.7112C2.78476 41.1979 3.27139 41.5107 3.75802 41.6497C4.31417 41.7888 4.90508 41.8583 5.53075 41.8583C6.88636 41.8583 8.1377 41.5107 9.28476 40.8155C10.4666 40.1203 11.5094 39.2513 12.4131 38.2086C11.127 37.3048 9.97995 36.1751 8.97193 34.8195C7.99866 33.4639 7.51203 31.9345 7.51203 30.2313C7.51203 29.7099 7.56417 29.1885 7.66845 28.6671C8.0508 26.7901 9.00668 25.3302 10.5361 24.2874C11.3356 23.7313 12.2393 23.4532 13.2473 23.4532C13.9078 23.4532 14.4987 23.5749 15.0201 23.8182C15.5762 24.0267 15.9586 24.2874 16.1671 24.6003V24.6524C16.1671 24.7914 16.0976 24.9305 15.9586 25.0695C15.8195 25.1738 15.7152 25.1912 15.6457 25.1217C15.4024 24.6698 14.9332 24.4438 14.238 24.4438C13.8556 24.4438 13.4385 24.5307 12.9866 24.7045C12.5348 24.8436 12.1176 25.1043 11.7353 25.4866C11.2834 25.869 10.9184 26.3556 10.6404 26.9465C10.3623 27.5027 10.1364 28.0936 9.96257 28.7193C9.75401 29.4492 9.64973 30.1618 9.64973 30.857C9.64973 32.2473 9.97995 33.4987 10.6404 34.611C11.3008 35.7233 12.1176 36.6791 13.0909 37.4786C14.3422 35.9144 15.5067 34.1417 16.5842 32.1604C17.6965 30.1791 18.7045 28.25 19.6083 26.373C20.5468 24.4612 21.381 22.8623 22.111 21.5762C24.8222 16.8142 27.4291 13.1297 29.9318 10.5227C32.4693 7.88101 34.8155 6.56016 36.9706 6.56016C37.4225 6.56016 37.857 6.61229 38.2741 6.71657C38.4131 6.75133 38.4479 6.83823 38.3783 6.97727C38.3088 7.11631 38.2045 7.16845 38.0655 7.13369C37.9265 7.09893 37.7874 7.08155 37.6484 7.08155C37.5441 7.04679 37.4225 7.02941 37.2834 7.02941C36.2406 7.02941 35.111 7.5508 33.8944 8.59358C32.6778 9.6016 31.4265 11.0094 30.1404 12.8168C28.8543 14.5896 27.5682 16.6404 26.2821 18.9692C26.734 18.6912 27.2554 18.5 27.8463 18.3957C28.4719 18.2567 29.115 18.1872 29.7754 18.1872C30.7834 18.1872 31.7914 18.2914 32.7995 18.5C33.8422 18.7086 34.7112 18.9519 35.4064 19.2299C36.9706 18.0134 38.2219 16.5013 39.1604 14.6938C40.1337 12.8864 40.6203 11.1484 40.6203 9.47994C40.6203 7.81149 40.1858 6.47326 39.3169 5.46524C38.4479 4.45721 37.3529 3.69251 36.0321 3.17112C34.7112 2.64973 33.3209 2.30213 31.861 2.12834C30.4011 1.95454 29.0628 1.86764 27.8463 1.86764C25.8997 1.86764 23.9532 2.0762 22.0067 2.49331C20.0949 2.91042 18.3222 3.51871 16.6885 4.31818C15.0548 5.08288 13.6644 6.02139 12.5174 7.13369C11.5789 8.03743 10.6925 9.23663 9.85829 10.7313C9.02406 12.2259 8.60695 13.738 8.60695 15.2674C8.60695 15.893 8.71123 16.5013 8.91979 17.0922C9.26738 18.0655 9.89305 18.8302 10.7968 19.3864C11.7005 19.9078 12.7433 20.1684 13.9251 20.1684C14.377 20.1684 14.8463 20.1163 15.3329 20.012C15.8195 19.9078 16.3062 19.7861 16.7928 19.6471H16.8971C17.0013 19.6471 17.0535 19.6992 17.0535 19.8035C17.0535 19.9425 16.9666 20.0468 16.7928 20.1163C15.8543 20.4291 14.881 20.5856 13.873 20.5856C12.6912 20.5856 11.5789 20.3596 10.5361 19.9078C9.49332 19.4211 8.64171 18.7086 7.98128 17.7701C7.32086 16.8315 6.99064 15.6671 6.99064 14.2767C6.99064 13.1992 7.12968 12.2086 7.40775 11.3048C7.72059 10.4011 8.1377 9.54946 8.65909 8.74999C9.80615 7.04679 11.4225 5.63903 13.508 4.52673C15.5936 3.41443 17.9051 2.58021 20.4425 2.02406C22.9799 1.46791 25.5 1.18983 28.0027 1.18983C29.1845 1.18983 30.5401 1.27673 32.0695 1.45053C33.6337 1.62433 35.1805 1.95454 36.7099 2.44117C38.2393 2.89304 39.5775 3.55347 40.7246 4.42245C41.9064 5.29144 42.7233 6.40374 43.1751 7.75935C43.3837 8.41978 43.488 9.13235 43.488 9.89705C43.488 11.2874 43.1404 12.6952 42.4452 14.1203C41.75 15.5107 40.881 16.7273 39.8382 17.7701C39.0388 18.639 38.0655 19.4037 36.9185 20.0642C38.5521 20.8636 39.7687 21.9586 40.5682 23.3489C41.3677 24.7045 41.7674 26.1644 41.7674 27.7286C41.7674 29.3623 41.3503 30.996 40.516 32.6297C39.6818 34.2634 38.4479 35.7406 36.8142 37.0615C35.2152 38.3824 33.2166 39.3904 30.8182 40.0856C29.7059 40.3984 28.5067 40.6417 27.2206 40.8155C25.9693 40.9893 24.6832 41.0762 23.3623 41.0762C22.0067 41.0762 20.6511 40.9719 19.2955 40.7634C17.9398 40.5548 16.6364 40.2246 15.385 39.7727C15.1765 39.7032 14.9505 39.6163 14.7072 39.512C14.4639 39.4078 14.238 39.2861 14.0294 39.1471C12.1524 40.8155 10.119 41.9104 7.92914 42.4318C7.09492 42.6404 6.2607 42.7447 5.42647 42.7447ZM28.4198 22.0455C29.5321 22.0455 30.5922 21.8717 31.6003 21.5241C32.6431 21.1417 33.6163 20.6203 34.5201 19.9599C33.8596 19.5428 33.1123 19.2647 32.2781 19.1257C31.4439 18.9519 30.488 18.865 29.4104 18.865C28.4024 18.865 27.6029 19.0735 27.012 19.4906C26.4211 19.9078 26.1257 20.3422 26.1257 20.7941C26.1257 21.1417 26.2995 21.4372 26.6471 21.6805C27.0294 21.9238 27.6203 22.0455 28.4198 22.0455ZM30.5575 39.0949C32.3302 38.3302 33.8075 37.3222 34.9893 36.0709C36.2059 34.7848 37.127 33.377 37.7527 31.8476C38.3783 30.3182 38.6912 28.8235 38.6912 27.3636C38.6912 26.0428 38.4305 24.8088 37.9091 23.6618C37.4225 22.5147 36.6578 21.5588 35.615 20.7941C34.5374 21.3155 33.3556 21.75 32.0695 22.0976C30.8182 22.4452 29.5321 22.619 28.2112 22.619C27.238 22.619 26.508 22.4973 26.0214 22.254C25.5348 21.9759 25.2045 21.6979 25.0308 21.4198C24.5789 22.2888 24.1444 23.1925 23.7273 24.131C23.3102 25.0695 22.8757 26.008 22.4238 26.9465C21.5201 28.8235 20.4251 30.8048 19.139 32.8904C17.8877 34.9759 16.4104 36.8356 14.7072 38.4693C14.9158 38.6083 15.1243 38.7126 15.3329 38.7821C15.5414 38.8864 15.75 38.9733 15.9586 39.0428C17.1056 39.4599 18.3222 39.7727 19.6083 39.9813C20.8944 40.1898 22.1805 40.2941 23.4666 40.2941C24.8222 40.2941 26.1083 40.1725 27.3249 39.9291C28.5762 39.7206 29.6537 39.4425 30.5575 39.0949ZM49.8946 38.4171C47.8785 38.4171 46.4534 37.8957 45.6192 36.8529C45.202 36.4011 44.9066 35.8623 44.7328 35.2366C44.559 34.611 44.4721 33.9679 44.4721 33.3075C44.4721 32.4733 44.5764 31.639 44.7849 30.8048C44.9935 29.9358 45.2542 29.1364 45.567 28.4064C46.0536 27.2594 46.6967 26.1123 47.4962 24.9652C48.2956 23.7834 49.2515 22.7928 50.3638 21.9933C51.5109 21.1938 52.7622 20.7941 54.1178 20.7941C55.0216 20.7941 55.7341 21.0201 56.2555 21.4719C56.7769 21.9238 57.0376 22.619 57.0376 23.5575C57.0376 24.635 56.7074 25.7299 56.047 26.8422C55.3865 27.9198 54.5523 28.8235 53.5443 29.5535C52.5363 30.2834 51.4935 30.6484 50.4159 30.6484C49.4427 30.6484 48.5911 30.3008 47.8611 29.6056C47.6526 30.1618 47.4788 30.7874 47.3397 31.4826C47.2007 32.143 47.1312 32.8209 47.1312 33.516C47.1312 34.5936 47.3397 35.5321 47.7569 36.3316C48.2087 37.131 49.0082 37.5307 50.1553 37.5307C50.9895 37.5307 51.7889 37.3222 52.5536 36.9051C53.3531 36.4532 54.0657 35.9144 54.6913 35.2888C55.3865 34.5588 56.047 33.7767 56.6726 32.9425C57.2983 32.1083 57.9066 31.135 58.4975 30.0227C58.567 29.9184 58.6192 29.8663 58.6539 29.8663C58.793 29.8663 58.8625 30.0227 58.8625 30.3356C58.8625 30.5441 58.793 30.7701 58.6539 31.0134C58.1325 31.9519 57.5242 32.9078 56.829 33.881C56.1339 34.8195 55.4213 35.6364 54.6913 36.3316C54.0309 36.9572 53.3184 37.4612 52.5536 37.8436C51.7889 38.2259 50.9026 38.4171 49.8946 38.4171ZM48.1218 28.8235C48.3651 29.1711 48.6432 29.4318 48.9561 29.6056C49.3036 29.7447 49.6512 29.8142 49.9988 29.8142C50.8331 29.8142 51.702 29.5013 52.6058 28.8757C53.5095 28.2152 54.2395 27.4505 54.7956 26.5815C55.0389 26.1992 55.2475 25.6952 55.4213 25.0695C55.6299 24.4438 55.7341 23.8529 55.7341 23.2968C55.7341 22.8102 55.6299 22.393 55.4213 22.0455C55.2475 21.6631 54.8825 21.4719 54.3264 21.4719C53.7007 21.4719 52.9534 21.8543 52.0844 22.619C51.2502 23.3837 50.4507 24.3743 49.686 25.5909C49.4427 26.008 49.1646 26.4947 48.8518 27.0508C48.5737 27.607 48.3304 28.1979 48.1218 28.8235ZM61.1941 38.3128C59.9427 38.3128 59.0737 37.9479 58.5871 37.2179C58.1005 36.488 57.8572 35.5668 57.8572 34.4545C57.8572 33.3075 58.031 32.0561 58.3786 30.7005C58.7609 29.3449 59.1954 28.0241 59.682 26.738C60.2034 25.4519 60.6901 24.3222 61.1419 23.3489C61.6286 22.3757 61.9588 21.6979 62.1326 21.3155C62.7582 19.9947 63.5229 18.5 64.4267 16.8315C65.3652 15.1631 66.408 13.4599 67.555 11.7219C68.7368 9.98395 69.9708 8.33288 71.2569 6.76871C72.5778 5.20454 73.9334 3.84892 75.3237 2.70187C76.7489 1.55481 78.1566 0.772722 79.547 0.355608C79.9294 0.251332 80.277 0.199193 80.5898 0.199193C81.1807 0.199193 81.6673 0.37299 82.0497 0.720583C82.4668 1.03342 82.6753 1.58957 82.6753 2.38903C82.6753 2.94518 82.5363 3.64037 82.2582 4.4746C81.8064 5.69117 81.0417 7.04679 79.9641 8.54144C78.8866 10.0013 77.6179 11.5307 76.158 13.1297C74.6981 14.6938 73.1513 16.2406 71.5176 17.7701C69.9187 19.2995 68.3545 20.7246 66.8251 22.0455C65.2957 23.3663 63.9401 24.496 62.7582 25.4345C62.4454 26.0949 62.1499 26.738 61.8719 27.3636C61.6286 27.9893 61.4026 28.5976 61.1941 29.1885C61.0898 29.5013 60.9334 29.9706 60.7248 30.5963C60.5163 31.2219 60.3251 31.9171 60.1513 32.6818C59.9775 33.4465 59.8906 34.1765 59.8906 34.8717C59.8906 35.5668 60.0296 36.1751 60.3077 36.6965C60.5858 37.1832 61.0898 37.4265 61.8197 37.4265C62.4106 37.4265 62.9494 37.2353 63.436 36.8529C63.9574 36.4706 64.4267 36.0535 64.8438 35.6016C66.3037 33.9332 67.6072 32.004 68.7542 29.8142C68.8933 29.5709 68.9975 29.4492 69.0671 29.4492C69.1366 29.4492 69.1713 29.5535 69.1713 29.762C69.1713 30.0749 69.1018 30.4051 68.9628 30.7527C68.3024 31.9693 67.6941 32.9947 67.1379 33.8289C66.6165 34.6631 65.8518 35.5842 64.8438 36.5922C64.3919 37.0441 63.8532 37.4439 63.2275 37.7914C62.6366 38.139 61.9588 38.3128 61.1941 38.3128ZM63.3318 24.2353C64.4093 23.2968 65.6606 22.1845 67.0858 20.8984C68.5109 19.5775 69.9708 18.1698 71.4655 16.6751C72.9601 15.1805 74.3679 13.6858 75.6887 12.1912C77.0443 10.6965 78.2088 9.28877 79.182 7.96791C80.1901 6.64705 80.8679 5.5 81.2155 4.52673C81.5283 3.62299 81.6847 2.9278 81.6847 2.44117C81.6847 1.53743 81.285 1.08556 80.4855 1.08556C80.0336 1.08556 79.4949 1.25935 78.8692 1.60695C78.2435 1.91978 77.67 2.33689 77.1486 2.85828C76.2796 3.69251 75.2542 4.89171 74.0724 6.45588C72.9253 7.98529 71.7088 9.74064 70.4227 11.7219C69.1366 13.7032 67.8679 15.7714 66.6165 17.9265C65.3999 20.0815 64.305 22.1845 63.3318 24.2353ZM73.7237 38.4171C71.7077 38.4171 70.2826 37.8957 69.4483 36.8529C69.0312 36.4011 68.7358 35.8623 68.562 35.2366C68.3882 34.611 68.3013 33.9679 68.3013 33.3075C68.3013 32.4733 68.4055 31.639 68.6141 30.8048C68.8227 29.9358 69.0834 29.1364 69.3962 28.4064C69.8828 27.2594 70.5259 26.1123 71.3253 24.9652C72.1248 23.7834 73.0807 22.7928 74.193 21.9933C75.34 21.1938 76.5914 20.7941 77.947 20.7941C78.8507 20.7941 79.5633 21.0201 80.0847 21.4719C80.6061 21.9238 80.8668 22.619 80.8668 23.5575C80.8668 24.635 80.5366 25.7299 79.8761 26.8422C79.2157 27.9198 78.3815 28.8235 77.3735 29.5535C76.3654 30.2834 75.3227 30.6484 74.2451 30.6484C73.2719 30.6484 72.4203 30.3008 71.6903 29.6056C71.4818 30.1618 71.308 30.7874 71.1689 31.4826C71.0299 32.143 70.9604 32.8209 70.9604 33.516C70.9604 34.5936 71.1689 35.5321 71.586 36.3316C72.0379 37.131 72.8374 37.5307 73.9844 37.5307C74.8186 37.5307 75.6181 37.3222 76.3828 36.9051C77.1823 36.4532 77.8949 35.9144 78.5205 35.2888C79.2157 34.5588 79.8761 33.7767 80.5018 32.9425C81.1275 32.1083 81.7358 31.135 82.3267 30.0227C82.3962 29.9184 82.4483 29.8663 82.4831 29.8663C82.6221 29.8663 82.6916 30.0227 82.6916 30.3356C82.6916 30.5441 82.6221 30.7701 82.4831 31.0134C81.9617 31.9519 81.3534 32.9078 80.6582 33.881C79.963 34.8195 79.2505 35.6364 78.5205 36.3316C77.8601 36.9572 77.1475 37.4612 76.3828 37.8436C75.6181 38.2259 74.7318 38.4171 73.7237 38.4171ZM71.951 28.8235C72.1943 29.1711 72.4724 29.4318 72.7852 29.6056C73.1328 29.7447 73.4804 29.8142 73.828 29.8142C74.6622 29.8142 75.5312 29.5013 76.435 28.8757C77.3387 28.2152 78.0686 27.4505 78.6248 26.5815C78.8681 26.1992 79.0767 25.6952 79.2505 25.0695C79.459 24.4438 79.5633 23.8529 79.5633 23.2968C79.5633 22.8102 79.459 22.393 79.2505 22.0455C79.0767 21.6631 78.7117 21.4719 78.1555 21.4719C77.5299 21.4719 76.7826 21.8543 75.9136 22.619C75.0793 23.3837 74.2799 24.3743 73.5152 25.5909C73.2719 26.008 72.9938 26.4947 72.6809 27.0508C72.4029 27.607 72.1596 28.1979 71.951 28.8235ZM82.1556 52.8075C81.9123 52.8422 81.6863 52.8596 81.4778 52.8596C81.2692 52.8944 81.0607 52.9118 80.8521 52.9118C79.6703 52.9118 78.7839 52.5989 78.193 51.9733C77.5674 51.3476 77.2545 50.6003 77.2545 49.7313C77.2545 49.0013 77.4805 48.2366 77.9323 47.4372C78.3494 46.6725 78.9925 46.012 79.8615 45.4559C81.5647 44.3436 83.4938 43.3182 85.6489 42.3797C87.8387 41.4759 89.9764 40.4332 92.062 39.2513C92.1663 38.9733 92.2706 38.6604 92.3748 38.3128C92.5139 38 92.6182 37.6698 92.6877 37.3222C92.792 36.8356 92.8441 36.4011 92.8441 36.0187C92.8441 35.1845 92.6182 34.5762 92.1663 34.1938C91.7492 33.8115 91.1756 33.6203 90.4457 33.6203C89.6462 33.6203 88.7425 33.8289 87.7345 34.246C87.4564 34.3503 87.1436 34.4719 86.796 34.611C86.4484 34.75 86.0834 34.9064 85.701 35.0802C85.3535 35.7754 84.8321 36.4011 84.1369 36.9572C83.4764 37.5134 82.9203 37.8262 82.4684 37.8957C82.3641 37.9305 82.2077 37.9479 81.9992 37.9479C81.3387 37.9479 81.0085 37.6524 81.0085 37.0615C81.0085 36.4706 81.3214 36.0013 81.947 35.6537C82.8855 35.0976 83.7719 34.5067 84.6061 33.881C85.4751 33.2553 86.3615 32.508 87.2652 31.639C88.2037 30.7353 89.2639 29.623 90.4457 28.3021C91.1756 27.4679 91.923 26.6684 92.6877 25.9037C93.4871 25.1043 94.2866 24.3396 95.0861 23.6096C94.8428 23.5401 94.4604 23.488 93.939 23.4532C93.4176 23.3837 92.8789 23.3142 92.3227 23.2446C91.8013 23.1751 91.3842 23.123 91.0714 23.0882C90.8628 23.0535 90.6543 23.0361 90.4457 23.0361C90.2719 23.0361 90.0981 23.0361 89.9243 23.0361C89.1596 23.0361 88.447 23.1751 87.7866 23.4532C87.1609 23.6965 86.57 24.2005 86.0139 24.9652C85.562 25.5909 85.0406 26.4251 84.4497 27.4679C83.8936 28.4759 83.181 29.7447 82.312 31.2741C82.2077 31.4826 82.1035 31.5869 81.9992 31.5869C81.8601 31.5869 81.7906 31.4652 81.7906 31.2219C81.7906 31.0481 81.8601 30.8396 81.9992 30.5963C82.6944 29.4144 83.2505 28.3717 83.6676 27.4679C84.0847 26.5642 84.6061 25.5735 85.2318 24.496C85.7184 23.627 86.2051 22.9318 86.6917 22.4104C87.2131 21.8543 87.8909 21.4719 88.7251 21.2634C89.0032 21.1938 89.2813 21.1417 89.5593 21.107C89.8722 21.0722 90.185 21.0548 90.4978 21.0548C91.193 21.0548 91.8708 21.0896 92.5313 21.1591C93.2264 21.2286 93.8521 21.2634 94.4083 21.2634C94.6863 21.2634 95.1208 21.2634 95.7117 21.2634C96.3374 21.2286 96.9457 21.1938 97.5366 21.1591C98.1275 21.0896 98.5273 21.0027 98.7358 20.8984C99.0139 21.0027 99.1529 21.246 99.1529 21.6283C99.1529 22.0802 98.927 22.5842 98.4751 23.1404C98.0232 23.6618 97.3454 23.8703 96.4417 23.766C95.5727 24.3222 94.6168 25.1217 93.574 26.1644C92.5313 27.2072 91.6449 28.111 90.915 28.8757C90.6369 29.1885 90.2024 29.623 89.6115 30.1791C89.0206 30.7353 88.3949 31.3436 87.7345 32.004C87.1088 32.6644 86.5353 33.3075 86.0139 33.9332C86.0139 33.9679 85.9965 34.0027 85.9617 34.0374C85.9617 34.0722 85.9617 34.1243 85.9617 34.1938C86.6222 33.7767 87.3869 33.4291 88.2559 33.1511C88.951 32.9425 89.5593 32.8035 90.0807 32.734C90.6369 32.6297 91.1409 32.5775 91.5928 32.5775C92.7746 32.5775 93.5914 32.873 94.0433 33.4639C94.5299 34.0548 94.7732 34.8021 94.7732 35.7059C94.7732 36.1925 94.7211 36.7313 94.6168 37.3222C95.7639 36.2794 96.8414 35.1324 97.8494 33.881C98.8575 32.5949 99.6917 31.361 100.352 30.1791C100.665 29.6925 100.943 29.4492 101.186 29.4492C101.256 29.4492 101.291 29.5013 101.291 29.6056C101.291 29.7447 101.221 29.9358 101.082 30.1791C100.456 31.2914 99.7786 32.3864 99.0486 33.4639C98.3187 34.5067 97.5192 35.4799 96.6502 36.3837C96.0246 37.0094 95.2773 37.6698 94.4083 38.365C94.304 38.7473 94.1823 39.1471 94.0433 39.5642C93.9043 39.9813 93.7478 40.3984 93.574 40.8155C92.7746 42.7968 91.8013 44.639 90.6543 46.3422C89.542 48.0455 88.2732 49.4532 86.8481 50.5655C85.4577 51.7126 83.8936 52.4599 82.1556 52.8075ZM81.8428 51.9211C83.6155 51.3997 85.0928 50.496 86.2746 49.2099C87.4912 47.9586 88.5339 46.516 89.4029 44.8824C90.2719 43.2834 91.0714 41.7193 91.8013 40.1898C90.9671 40.746 89.8374 41.3369 88.4123 41.9626C87.0219 42.623 85.5968 43.2834 84.1369 43.9439C82.677 44.639 81.4083 45.3516 80.3307 46.0816C79.6008 46.5682 79.062 47.1417 78.7144 47.8021C78.3668 48.4973 78.193 49.1578 78.193 49.7834C78.193 50.4439 78.3842 51 78.7666 51.4519C79.1837 51.9037 79.7746 52.1297 80.5393 52.1297C80.7131 52.1297 80.9043 52.1123 81.1128 52.0775C81.3561 52.0428 81.5994 51.9906 81.8428 51.9211ZM111.596 38.365C110.484 38.365 109.719 38.0174 109.302 37.3222C108.885 36.5922 108.676 35.7928 108.676 34.9238C108.676 34.75 108.694 34.4545 108.729 34.0374C108.798 33.5856 108.868 33.1684 108.937 32.7861C108.451 33.4465 107.86 34.1765 107.164 34.9759C106.504 35.7754 105.826 36.4532 105.131 37.0094C104.019 37.9131 103.011 38.365 102.107 38.365C101.238 38.365 100.56 38 100.073 37.2701C99.6216 36.5401 99.3957 35.619 99.3957 34.5067C99.3957 33.0816 99.7085 31.639 100.334 30.1791C100.96 28.7193 101.777 27.3463 102.785 26.0602C103.828 24.7393 104.975 23.6096 106.226 22.6711C106.956 22.1497 107.842 21.7326 108.885 21.4198C109.963 21.0722 111.04 20.8984 112.118 20.8984C113.334 20.8984 114.394 21.0896 115.298 21.4719C116.237 21.8195 116.88 22.3235 117.227 22.984C116.497 23.9225 115.75 25.0869 114.985 26.4773C114.221 27.8329 113.56 29.0668 113.004 30.1791C112.622 30.9438 112.205 31.8997 111.753 33.0468C111.301 34.1591 111.075 35.115 111.075 35.9144C111.075 36.262 111.162 36.6096 111.336 36.9572C111.509 37.3048 111.84 37.4786 112.326 37.4786C112.882 37.4786 113.421 37.2701 113.942 36.8529C114.464 36.4358 114.898 36.0187 115.246 35.6016C116.045 34.7326 116.775 33.7767 117.436 32.734C118.096 31.6912 118.757 30.5789 119.417 29.3971C119.521 29.258 119.626 29.1885 119.73 29.1885C119.869 29.1885 119.938 29.2928 119.938 29.5013C119.938 29.6751 119.904 29.8142 119.834 29.9184C119.243 31.0655 118.583 32.2126 117.853 33.3596C117.123 34.5067 116.254 35.5842 115.246 36.5922C114.759 37.0789 114.186 37.496 113.525 37.8436C112.865 38.1912 112.222 38.365 111.596 38.365ZM103.254 36.7487C103.914 36.7487 104.627 36.4011 105.392 35.7059C106.191 34.9759 106.956 34.107 107.686 33.0989C108.451 32.0561 109.128 31.0655 109.719 30.127C110.345 29.1537 110.832 28.4064 111.179 27.885C111.909 26.738 112.587 25.7821 113.213 25.0174C113.838 24.2527 114.811 23.6618 116.132 23.2446C116.202 23.2446 116.254 23.2446 116.289 23.2446C116.358 23.2099 116.428 23.1925 116.497 23.1925C116.184 22.7059 115.663 22.3409 114.933 22.0976C114.203 21.8543 113.491 21.7326 112.795 21.7326C111.718 21.7326 110.675 22.0281 109.667 22.619C108.659 23.2099 107.738 23.9572 106.904 24.861C106.104 25.7995 105.322 26.8249 104.557 27.9372C103.793 29.0495 103.167 30.1791 102.68 31.3262C102.229 32.4733 102.003 33.5682 102.003 34.611C102.003 35.1671 102.09 35.6711 102.263 36.123C102.472 36.5401 102.802 36.7487 103.254 36.7487ZM118.553 42.5882C118.136 42.3797 117.805 42.0842 117.562 41.7019C117.354 41.3195 117.249 40.9372 117.249 40.5548C117.249 40.1725 117.354 39.8596 117.562 39.6163C117.666 39.4773 117.788 39.3904 117.927 39.3556C118.101 39.3556 118.153 39.4425 118.083 39.6163C117.979 40.1377 118.222 40.6243 118.813 41.0762C119.404 41.5281 119.943 41.8235 120.43 41.9626C120.951 42.0668 121.472 42.119 121.994 42.119C123.071 42.119 124.027 41.9626 124.862 41.6497C126.113 41.2326 127.347 40.381 128.563 39.0949C129.815 37.8088 130.979 36.3489 132.057 34.7152C133.1 33.1163 134.125 31.3088 135.133 29.2928C136.176 27.242 137.218 25.139 138.261 22.984C139.339 20.7941 140.486 18.6912 141.702 16.6751C142.919 14.6243 144.223 12.7995 145.613 11.2005C147.038 9.56684 148.602 8.3155 150.305 7.44652C148.602 7.23796 146.847 6.95989 145.039 6.61229C143.267 6.22994 141.772 5.93449 140.555 5.72593C139.791 5.58689 138.922 5.5 137.948 5.46524C136.975 5.39572 135.95 5.36096 134.872 5.36096C132.96 5.36096 131.049 5.48262 129.137 5.72593C127.225 5.93449 125.696 6.29946 124.549 6.82085C122.533 7.72459 120.795 8.97593 119.335 10.5749C117.875 12.139 117.145 14.1029 117.145 16.4666C117.145 17.4398 117.301 18.2741 117.614 18.9692C117.962 19.6297 118.396 20.1337 118.918 20.4813C119.509 20.8289 120.117 21.0027 120.743 21.0027C121.507 21.0027 122.289 20.7767 123.089 20.3249C123.888 19.8382 124.583 19.143 125.174 18.2393C125.452 17.7874 125.713 17.127 125.956 16.258C126.235 15.389 126.374 14.5027 126.374 13.5989C126.374 13.1123 126.321 12.643 126.217 12.1912C126.148 11.7393 125.991 11.3396 125.748 10.992C125.678 10.8529 125.644 10.7834 125.644 10.7834C125.644 10.6791 125.696 10.627 125.8 10.627C125.939 10.627 126.061 10.7139 126.165 10.8877C126.339 11.131 126.513 11.5134 126.686 12.0348C126.895 12.5214 127.034 12.9733 127.104 13.3904C127.138 13.5989 127.156 13.8075 127.156 14.016C127.19 14.2246 127.208 14.4332 127.208 14.6417C127.208 15.3369 127.121 16.0495 126.947 16.7794C126.773 17.4746 126.495 18.1176 126.113 18.7086C125.557 19.6471 124.809 20.3596 123.871 20.8463C122.932 21.2981 121.959 21.5241 120.951 21.5241C120.152 21.5241 119.387 21.3676 118.657 21.0548C117.579 20.5334 116.78 19.7861 116.259 18.8128C115.772 17.8396 115.529 16.7794 115.529 15.6323C115.529 14.8676 115.616 14.1029 115.789 13.3382C115.998 12.5388 116.276 11.7741 116.624 11.0441C117.214 9.75802 118.031 8.62834 119.074 7.65508C120.117 6.68181 121.16 5.91711 122.202 5.36096C123.94 4.42245 125.678 3.76203 127.416 3.37967C129.189 2.99732 130.979 2.80615 132.787 2.80615C134.281 2.80615 135.793 2.91042 137.323 3.11898C138.852 3.32753 140.399 3.62299 141.963 4.00534C143.736 4.42246 145.561 4.89171 147.438 5.4131C148.376 5.65641 149.489 5.93449 150.775 6.24732C152.095 6.5254 153.347 6.66444 154.529 6.66444C155.224 6.66444 155.902 6.57754 156.562 6.40374C157.257 6.19518 157.796 5.79545 158.178 5.20454C158.317 4.99598 158.387 4.73529 158.387 4.42245C158.387 4.24866 158.37 4.09224 158.335 3.9532C158.335 3.77941 158.352 3.67513 158.387 3.64037C158.456 3.57085 158.526 3.53609 158.595 3.53609C158.735 3.53609 158.856 3.64037 158.96 3.84893C159.065 3.98796 159.117 4.24866 159.117 4.63101C159.117 4.87433 159.1 5.04812 159.065 5.1524C158.856 5.88235 158.387 6.4385 157.657 6.82085C156.962 7.2032 156.267 7.44652 155.571 7.5508C155.293 7.58556 154.981 7.62032 154.633 7.65508C154.32 7.65508 153.99 7.65508 153.642 7.65508C153.364 7.65508 153.069 7.65508 152.756 7.65508C152.443 7.65508 152.13 7.6377 151.817 7.60294C150.67 8.12433 149.471 9.11497 148.22 10.5749C146.69 12.3823 145.37 14.3115 144.257 16.3623C143.145 18.3783 142.12 20.4639 141.181 22.619C140.243 24.7393 139.269 26.8422 138.261 28.9278C137.288 31.0134 136.124 33.012 134.768 34.9238C133.551 36.627 132.178 38.1564 130.649 39.512C129.12 40.8676 127.382 41.893 125.435 42.5882C124.358 42.9706 123.071 43.1618 121.577 43.1618C120.986 43.1618 120.43 43.1096 119.908 43.0053C119.387 42.9358 118.935 42.7968 118.553 42.5882ZM151.136 38.3128C150.163 38.3128 149.451 38 148.999 37.3743C148.547 36.7139 148.321 35.9144 148.321 34.9759C148.321 34.6979 148.338 34.4198 148.373 34.1417C148.443 33.8289 148.512 33.516 148.582 33.2032C148.964 31.8128 149.555 30.266 150.354 28.5628C151.188 26.8249 151.988 25.2781 152.753 23.9225C153.205 23.1578 153.622 22.619 154.004 22.3061C154.386 21.9586 154.803 21.7152 155.255 21.5762C155.707 21.4024 156.246 21.2112 156.872 21.0027C157.045 20.9332 157.219 20.881 157.393 20.8463C157.567 20.8115 157.758 20.7767 157.967 20.742C157.271 21.4372 156.559 22.2714 155.829 23.2446C155.134 24.2179 154.369 25.5561 153.535 27.2594C153.083 28.1631 152.631 29.1711 152.179 30.2834C151.762 31.3957 151.397 32.4385 151.084 33.4118C150.771 34.385 150.598 35.1497 150.563 35.7059C150.528 36.3663 150.615 36.8356 150.824 37.1136C151.032 37.3917 151.31 37.5307 151.658 37.5307C152.249 37.5307 152.805 37.3222 153.326 36.9051C153.882 36.488 154.369 36.0535 154.786 35.6016C155.551 34.7326 156.263 33.7767 156.924 32.734C157.619 31.6912 158.297 30.5789 158.957 29.3971C159.061 29.258 159.148 29.1885 159.218 29.1885C159.357 29.1885 159.426 29.2928 159.426 29.5013C159.426 29.6751 159.392 29.8142 159.322 29.9184C158.697 31.0655 158.036 32.2126 157.341 33.3596C156.646 34.5067 155.794 35.5842 154.786 36.5922C154.334 37.0441 153.795 37.4439 153.17 37.7914C152.579 38.139 151.901 38.3128 151.136 38.3128ZM157.497 17.8222C157.115 17.8222 156.785 17.6832 156.507 17.4051C156.263 17.127 156.142 16.7968 156.142 16.4144C156.142 15.9278 156.333 15.4933 156.715 15.111C157.132 14.7286 157.584 14.5027 158.071 14.4332C158.453 14.4332 158.766 14.5722 159.009 14.8503C159.287 15.0936 159.426 15.4238 159.426 15.8409C159.426 16.2928 159.235 16.7446 158.853 17.1965C158.471 17.6136 158.019 17.8222 157.497 17.8222ZM178.086 38.3128C177.043 38.3128 176.243 38 175.687 37.3743C175.131 36.7139 174.853 35.8971 174.853 34.9238C174.853 33.8463 175.131 32.7687 175.687 31.6912C176.243 30.5789 176.869 29.5013 177.564 28.4586C178.294 27.4158 178.937 26.4251 179.493 25.4866C180.05 24.5481 180.328 23.7139 180.328 22.984C180.328 22.7059 180.258 22.4626 180.119 22.254C179.98 22.0107 179.719 21.889 179.337 21.889C178.225 21.889 177.06 22.4104 175.844 23.4532C174.662 24.4612 173.515 25.7647 172.403 27.3636C171.29 28.9626 170.282 30.631 169.379 32.369C168.51 34.107 167.832 35.7059 167.345 37.1658C166.789 37.0267 166.407 36.8182 166.198 36.5401C166.024 36.2273 165.937 35.8971 165.937 35.5495C165.937 34.9933 166.007 34.4545 166.146 33.9332C166.32 33.4118 166.58 32.7687 166.928 32.004C167.276 31.2393 167.727 30.266 168.284 29.0842C168.84 27.8676 169.5 26.3035 170.265 24.3917C170.369 24.1136 170.439 23.8703 170.473 23.6618C170.508 23.4532 170.526 23.262 170.526 23.0882C170.526 22.2888 170.195 21.889 169.535 21.889C168.701 21.889 167.849 22.2366 166.98 22.9318C166.111 23.5922 165.26 24.4786 164.425 25.5909C163.626 26.7032 162.861 27.9024 162.131 29.1885C161.401 30.4746 160.741 31.7433 160.15 32.9947C159.559 34.2112 159.072 35.2714 158.69 36.1751C158.342 36.9746 157.925 37.496 157.439 37.7393C156.952 37.9479 156.483 38.0521 156.031 38.0521C155.892 38.0521 155.718 38.0348 155.51 38C155.336 38 155.162 38 154.988 38C155.683 36.6096 156.413 35.0976 157.178 33.4639C157.977 31.7955 158.707 30.127 159.368 28.4586C160.028 26.7901 160.567 25.1912 160.984 23.6618C161.401 22.1324 161.61 20.8115 161.61 19.6992C161.61 19.5602 161.592 19.4559 161.558 19.3864C161.558 19.3168 161.558 19.2473 161.558 19.1778C161.558 19.0735 161.592 19.0214 161.662 19.0214C162.01 19.0214 162.288 19.2473 162.496 19.6992C162.705 20.1163 162.844 20.6029 162.913 21.1591C163.018 21.6805 163.07 22.0976 163.07 22.4104C163.07 23.2794 162.965 24.1832 162.757 25.1217C162.548 26.0254 162.305 26.7901 162.027 27.4158C163.348 25.643 164.703 24.131 166.094 22.8797C167.519 21.6283 168.927 21.0027 170.317 21.0027C171.256 21.0027 171.933 21.1938 172.35 21.5762C172.768 21.9586 172.976 22.4973 172.976 23.1925C172.976 23.6791 172.889 24.1658 172.715 24.6524C172.576 25.139 172.333 25.7995 171.985 26.6337C173.306 24.8262 174.592 23.4358 175.844 22.4626C177.13 21.4893 178.399 21.0027 179.65 21.0027C180.658 21.0027 181.405 21.2286 181.892 21.6805C182.413 22.1324 182.674 22.7406 182.674 23.5053C182.674 24.3396 182.396 25.3302 181.84 26.4773C181.318 27.5896 180.71 28.754 180.015 29.9706C179.32 31.1524 178.694 32.2821 178.138 33.3596C177.616 34.4024 177.356 35.2714 177.356 35.9666C177.356 36.3489 177.443 36.6965 177.616 37.0094C177.79 37.3222 178.103 37.4786 178.555 37.4786C179.146 37.4786 179.702 37.2874 180.223 36.9051C180.78 36.488 181.249 36.0535 181.631 35.6016C182.431 34.7326 183.161 33.7767 183.821 32.734C184.516 31.6564 185.194 30.5267 185.854 29.3449C185.959 29.2059 186.028 29.1364 186.063 29.1364C186.202 29.1364 186.272 29.2928 186.272 29.6056C186.272 29.8142 186.237 29.9706 186.167 30.0749C185.542 31.2219 184.881 32.3516 184.186 33.4639C183.491 34.5414 182.639 35.5842 181.631 36.5922C181.179 37.0441 180.658 37.4439 180.067 37.7914C179.476 38.139 178.816 38.3128 178.086 38.3128ZM190.476 38.4171C188.46 38.4171 187.035 37.8957 186.201 36.8529C185.784 36.4011 185.489 35.8623 185.315 35.2366C185.141 34.611 185.054 33.9679 185.054 33.3075C185.054 32.4733 185.158 31.639 185.367 30.8048C185.575 29.9358 185.836 29.1364 186.149 28.4064C186.636 27.2594 187.279 26.1123 188.078 24.9652C188.878 23.7834 189.833 22.7928 190.946 21.9933C192.093 21.1938 193.344 20.7941 194.7 20.7941C195.603 20.7941 196.316 21.0201 196.837 21.4719C197.359 21.9238 197.62 22.619 197.62 23.5575C197.62 24.635 197.289 25.7299 196.629 26.8422C195.968 27.9198 195.134 28.8235 194.126 29.5535C193.118 30.2834 192.075 30.6484 190.998 30.6484C190.025 30.6484 189.173 30.3008 188.443 29.6056C188.235 30.1618 188.061 30.7874 187.922 31.4826C187.783 32.143 187.713 32.8209 187.713 33.516C187.713 34.5936 187.922 35.5321 188.339 36.3316C188.791 37.131 189.59 37.5307 190.737 37.5307C191.571 37.5307 192.371 37.3222 193.136 36.9051C193.935 36.4532 194.648 35.9144 195.273 35.2888C195.968 34.5588 196.629 33.7767 197.255 32.9425C197.88 32.1083 198.489 31.135 199.079 30.0227C199.149 29.9184 199.201 29.8663 199.236 29.8663C199.375 29.8663 199.444 30.0227 199.444 30.3356C199.444 30.5441 199.375 30.7701 199.236 31.0134C198.714 31.9519 198.106 32.9078 197.411 33.881C196.716 34.8195 196.003 35.6364 195.273 36.3316C194.613 36.9572 193.9 37.4612 193.136 37.8436C192.371 38.2259 191.485 38.4171 190.476 38.4171ZM188.704 28.8235C188.947 29.1711 189.225 29.4318 189.538 29.6056C189.886 29.7447 190.233 29.8142 190.581 29.8142C191.415 29.8142 192.284 29.5013 193.188 28.8757C194.091 28.2152 194.821 27.4505 195.378 26.5815C195.621 26.1992 195.829 25.6952 196.003 25.0695C196.212 24.4438 196.316 23.8529 196.316 23.2968C196.316 22.8102 196.212 22.393 196.003 22.0455C195.829 21.6631 195.464 21.4719 194.908 21.4719C194.283 21.4719 193.535 21.8543 192.666 22.619C191.832 23.3837 191.033 24.3743 190.268 25.5909C190.025 26.008 189.747 26.4947 189.434 27.0508C189.156 27.607 188.912 28.1979 188.704 28.8235Z" fill="url(#paint0_radial_82_265)"/>
<defs>
<radialGradient id="paint0_radial_82_265" cx="0" cy="0" r="1" gradientUnits="userSpaceOnUse" gradientTransform="translate(101 -1) rotate(90) scale(39 190)">
<stop stop-color="#7D573C"/>
<stop offset="0.5" stop-color="#DD9A6E"/>
<stop offset="1" stop-color="#A06B46"/>
</radialGradient>
</defs>
</svg>
