<svg width="256" height="256" viewBox="0 0 256 256" fill="none" xmlns="http://www.w3.org/2000/svg">
<path d="M18.1692 167.145C16.9487 167.145 15.1734 166.979 12.8434 166.646C10.5133 166.313 8.40514 165.592 6.51889 164.483C4.52169 163.373 3.52309 161.598 3.52309 159.157C3.52309 157.825 3.85596 156.771 4.52169 155.994C4.96551 155.44 5.40933 155.162 5.85316 155.162C6.29698 155.162 6.46341 155.44 6.35246 155.994C5.90863 157.659 6.51889 159.212 8.18323 160.655C9.7366 162.208 11.29 163.207 12.8434 163.65C14.6187 164.094 16.5049 164.316 18.5021 164.316C22.8294 164.316 26.8238 163.207 30.4853 160.987C34.2578 158.768 37.5865 155.994 40.4713 152.666C36.366 149.781 32.7044 146.175 29.4867 141.848C26.3799 137.52 24.8266 132.638 24.8266 127.201C24.8266 125.537 24.993 123.873 25.3259 122.208C26.5464 116.217 29.5977 111.557 34.4797 108.228C37.0317 106.453 39.9165 105.565 43.1343 105.565C45.2424 105.565 47.1287 105.953 48.793 106.73C50.5683 107.396 51.7888 108.228 52.4545 109.227V109.393C52.4545 109.837 52.2326 110.281 51.7888 110.725C51.345 111.057 51.0121 111.113 50.7902 110.891C50.0135 109.449 48.5156 108.727 46.2965 108.727C45.076 108.727 43.7445 109.005 42.3021 109.559C40.8597 110.003 39.5282 110.835 38.3077 112.056C36.8653 113.276 35.7002 114.83 34.8126 116.716C33.9249 118.491 33.2037 120.378 32.6489 122.375C31.9832 124.705 31.6503 126.98 31.6503 129.199C31.6503 133.637 32.7044 137.631 34.8126 141.182C36.9207 144.732 39.5282 147.784 42.6349 150.336C46.6294 145.343 50.3464 139.684 53.786 133.359C57.3366 127.035 60.5543 120.877 63.4391 114.885C66.4349 108.783 69.0979 103.679 71.4279 99.5735C80.0825 84.3725 88.4041 72.6112 96.393 64.2896C104.493 55.8569 111.982 51.6406 118.861 51.6406C120.304 51.6406 121.691 51.8071 123.022 52.1399C123.466 52.2509 123.577 52.5283 123.355 52.9721C123.133 53.4159 122.8 53.5824 122.357 53.4714C121.913 53.3604 121.469 53.305 121.025 53.305C120.692 53.194 120.304 53.1385 119.86 53.1385C116.531 53.1385 112.925 54.8029 109.042 58.1315C105.158 61.3492 101.164 65.843 97.0587 71.6126C92.9533 77.2714 88.848 83.8178 84.7426 91.2518C86.185 90.3641 87.8494 89.7539 89.7356 89.421C91.7328 88.9772 93.7855 88.7553 95.8937 88.7553C99.1114 88.7553 102.329 89.0882 105.547 89.7539C108.875 90.4196 111.649 91.1963 113.868 92.084C118.861 88.2005 122.856 83.3739 125.852 77.6042C128.958 71.8346 130.512 66.2868 130.512 60.9609C130.512 55.635 129.125 51.3632 126.351 48.1455C123.577 44.9278 120.082 42.4868 115.866 40.8225C111.649 39.1581 107.211 38.0486 102.551 37.4938C97.8909 36.939 93.6191 36.6616 89.7356 36.6616C83.5221 36.6616 77.3086 37.3274 71.0951 38.6588C64.9925 39.9903 59.3338 41.932 54.1189 44.484C48.9039 46.925 44.4657 49.9208 40.8042 53.4714C37.8084 56.3562 34.979 60.1842 32.3161 64.9553C29.6531 69.7264 28.3217 74.553 28.3217 79.435C28.3217 81.4322 28.6545 83.3739 29.3203 85.2602C30.4298 88.3669 32.427 90.808 35.3119 92.5833C38.1967 94.2476 41.5254 95.0798 45.2979 95.0798C46.7403 95.0798 48.2382 94.9133 49.7916 94.5805C51.345 94.2476 52.8983 93.8592 54.4517 93.4154H54.7846C55.1175 93.4154 55.2839 93.5819 55.2839 93.9147C55.2839 94.3585 55.0065 94.6914 54.4517 94.9133C51.4559 95.9119 48.3492 96.4112 45.1315 96.4112C41.359 96.4112 37.8084 95.69 34.4797 94.2476C31.151 92.6942 28.4326 90.4196 26.3245 87.4238C24.2163 84.428 23.1622 80.711 23.1622 76.2728C23.1622 72.8332 23.6061 69.6709 24.4937 66.7861C25.4923 63.9012 26.8238 61.1828 28.4881 58.6308C32.1496 53.194 37.3091 48.7003 43.9664 45.1497C50.6238 41.5991 58.0023 38.9362 66.1021 37.1609C74.2018 35.3856 82.2461 34.498 90.2349 34.498C94.0074 34.498 98.3347 34.7754 103.217 35.3302C108.21 35.8849 113.147 36.939 118.029 38.4924C122.911 39.9348 127.183 42.043 130.845 44.8169C134.617 47.5907 137.225 51.1413 138.667 55.4686C139.333 57.5768 139.666 59.8513 139.666 62.2924C139.666 66.7306 138.556 71.2243 136.337 75.7735C134.118 80.2117 131.344 84.0952 128.015 87.4238C125.463 90.1977 122.357 92.6387 118.695 94.7469C123.91 97.2989 127.793 100.794 130.345 105.232C132.897 109.559 134.173 114.22 134.173 119.213C134.173 124.428 132.842 129.642 130.179 134.857C127.516 140.072 123.577 144.788 118.362 149.004C113.258 153.221 106.878 156.438 99.2223 158.657C95.6717 159.656 91.8438 160.433 87.7384 160.987C83.744 161.542 79.6387 161.82 75.4223 161.82C71.0951 161.82 66.7678 161.487 62.4405 160.821C58.1133 160.155 53.9524 159.101 49.958 157.659C49.2923 157.437 48.5711 157.159 47.7944 156.827C47.0177 156.494 46.2965 156.105 45.6308 155.662C39.6391 160.987 33.1482 164.483 26.158 166.147C23.4951 166.813 20.8322 167.145 18.1692 167.145ZM91.5664 101.071C95.117 101.071 98.5011 100.517 101.719 99.407C105.047 98.1865 108.154 96.5222 111.039 94.414C108.931 93.0826 106.545 92.1949 103.882 91.7511C101.22 91.1963 98.1682 90.9189 94.7286 90.9189C91.5109 90.9189 88.9589 91.5847 87.0727 92.9161C85.1864 94.2476 84.2433 95.6345 84.2433 97.077C84.2433 98.1865 84.7981 99.1296 85.9076 99.9063C87.1282 100.683 89.0144 101.071 91.5664 101.071ZM98.3902 155.495C104.049 153.054 108.765 149.836 112.537 145.842C116.42 141.737 119.361 137.243 121.358 132.361C123.355 127.479 124.354 122.708 124.354 118.048C124.354 113.831 123.522 109.892 121.857 106.231C120.304 102.569 117.863 99.518 114.534 97.077C111.095 98.7413 107.322 100.128 103.217 101.238C99.2223 102.347 95.117 102.902 90.9007 102.902C87.7939 102.902 85.4638 102.514 83.9104 101.737C82.3571 100.849 81.303 99.9618 80.7482 99.0742C79.3058 101.848 77.9188 104.733 76.5874 107.729C75.2559 110.725 73.869 113.72 72.4265 116.716C69.5417 122.708 66.0466 129.032 61.9412 135.69C57.9468 142.347 53.2312 148.283 47.7944 153.498C48.4601 153.942 49.1259 154.275 49.7916 154.497C50.4573 154.829 51.1231 155.107 51.7888 155.329C55.4503 156.66 59.3338 157.659 63.4391 158.324C67.5445 158.99 71.6498 159.323 75.7552 159.323C80.0825 159.323 84.1878 158.935 88.0713 158.158C92.0657 157.492 95.5053 156.605 98.3902 155.495Z" fill="url(#paint0_radial_82_249)"/>
<path d="M82.3312 239.319C81.461 238.884 80.772 238.267 80.2644 237.47C79.8292 236.672 79.6117 235.874 79.6117 235.077C79.6117 234.279 79.8292 233.626 80.2644 233.119C80.4819 232.828 80.7358 232.647 81.0258 232.575C81.3884 232.575 81.4972 232.756 81.3522 233.119C81.1346 234.206 81.6423 235.222 82.8751 236.164C84.1079 237.107 85.232 237.724 86.2473 238.014C87.3351 238.231 88.4229 238.34 89.5107 238.34C91.7588 238.34 93.7532 238.014 95.4936 237.361C98.1044 236.491 100.679 234.714 103.217 232.031C105.828 229.347 108.257 226.302 110.505 222.893C112.681 219.557 114.82 215.786 116.923 211.58C119.099 207.301 121.275 202.914 123.45 198.418C125.698 193.849 128.092 189.461 130.63 185.255C133.168 180.976 135.887 177.169 138.788 173.833C141.762 170.425 145.025 167.814 148.579 166.001C145.025 165.566 141.363 164.986 137.592 164.26C133.893 163.463 130.775 162.846 128.237 162.411C126.641 162.121 124.828 161.94 122.798 161.867C120.767 161.722 118.628 161.65 116.379 161.65C112.391 161.65 108.402 161.904 104.414 162.411C100.425 162.846 97.2341 163.608 94.841 164.696C90.6348 166.581 87.0088 169.192 83.9629 172.528C80.9171 175.791 79.3941 179.889 79.3941 184.82C79.3941 186.851 79.7205 188.591 80.3731 190.041C81.0984 191.419 82.0049 192.471 83.0927 193.196C84.3255 193.921 85.5946 194.284 86.9 194.284C88.4954 194.284 90.1271 193.813 91.7951 192.87C93.4631 191.854 94.9135 190.404 96.1463 188.519C96.7265 187.576 97.2704 186.198 97.778 184.385C98.3582 182.572 98.6483 180.723 98.6483 178.837C98.6483 177.822 98.5395 176.843 98.3219 175.9C98.1769 174.957 97.8505 174.123 97.3429 173.398C97.1979 173.108 97.1253 172.963 97.1253 172.963C97.1253 172.745 97.2341 172.637 97.4517 172.637C97.7418 172.637 97.9956 172.818 98.2132 173.18C98.5758 173.688 98.9384 174.486 99.301 175.574C99.7361 176.589 100.026 177.532 100.171 178.402C100.244 178.837 100.28 179.272 100.28 179.707C100.353 180.142 100.389 180.578 100.389 181.013C100.389 182.463 100.207 183.95 99.8449 185.473C99.4823 186.923 98.9021 188.265 98.1044 189.498C96.944 191.456 95.3849 192.942 93.4268 193.958C91.4688 194.9 89.4382 195.372 87.3351 195.372C85.6671 195.372 84.0717 195.045 82.5488 194.393C80.3006 193.305 78.6327 191.746 77.5449 189.715C76.5296 187.685 76.0219 185.473 76.0219 183.08C76.0219 181.484 76.2032 179.889 76.5658 178.293C77.001 176.625 77.5811 175.03 78.3063 173.507C79.5392 170.824 81.2434 168.467 83.419 166.436C85.5946 164.406 87.7702 162.81 89.9458 161.65C93.5719 159.692 97.1979 158.314 100.824 157.516C104.522 156.718 108.257 156.32 112.028 156.32C115.147 156.32 118.301 156.537 121.492 156.972C124.683 157.407 127.91 158.024 131.174 158.821C134.872 159.692 138.679 160.671 142.596 161.759C144.554 162.266 146.874 162.846 149.558 163.499C152.313 164.079 154.924 164.369 157.39 164.369C158.84 164.369 160.254 164.188 161.632 163.825C163.083 163.39 164.207 162.556 165.004 161.323C165.294 160.888 165.439 160.344 165.439 159.692C165.439 159.329 165.403 159.003 165.331 158.713C165.331 158.35 165.367 158.133 165.439 158.06C165.585 157.915 165.73 157.842 165.875 157.842C166.165 157.842 166.419 158.06 166.636 158.495C166.854 158.785 166.962 159.329 166.962 160.127C166.962 160.634 166.926 160.997 166.854 161.215C166.419 162.738 165.44 163.898 163.917 164.696C162.466 165.493 161.016 166.001 159.565 166.219C158.985 166.291 158.333 166.364 157.607 166.436C156.955 166.436 156.266 166.436 155.54 166.436C154.96 166.436 154.344 166.436 153.691 166.436C153.039 166.436 152.386 166.4 151.733 166.327C149.34 167.415 146.838 169.482 144.227 172.528C141.036 176.299 138.281 180.324 135.96 184.602C133.639 188.809 131.5 193.16 129.542 197.656C127.584 202.08 125.553 206.467 123.45 210.819C121.42 215.17 118.99 219.34 116.162 223.328C113.624 226.882 110.759 230.073 107.568 232.901C104.377 235.729 100.751 237.869 96.6902 239.319C94.4421 240.117 91.7588 240.516 88.6405 240.516C87.4076 240.516 86.2473 240.407 85.1595 240.189C84.0717 240.044 83.1289 239.754 82.3312 239.319ZM150.312 230.399C148.282 230.399 146.795 229.746 145.852 228.441C144.909 227.063 144.438 225.395 144.438 223.437C144.438 222.857 144.474 222.277 144.547 221.697C144.692 221.044 144.837 220.391 144.982 219.739C145.78 216.838 147.013 213.611 148.681 210.057C150.421 206.431 152.089 203.204 153.684 200.376C154.627 198.78 155.497 197.656 156.295 197.003C157.093 196.278 157.963 195.771 158.906 195.48C159.849 195.118 160.973 194.719 162.278 194.284C162.641 194.139 163.003 194.03 163.366 193.958C163.728 193.885 164.127 193.813 164.562 193.74C163.112 195.19 161.625 196.931 160.102 198.961C158.652 200.992 157.057 203.784 155.316 207.338C154.373 209.223 153.431 211.326 152.488 213.647C151.618 215.967 150.856 218.143 150.203 220.174C149.551 222.204 149.188 223.8 149.116 224.96C149.043 226.338 149.224 227.317 149.66 227.897C150.095 228.477 150.675 228.767 151.4 228.767C152.633 228.767 153.793 228.332 154.881 227.462C156.041 226.592 157.057 225.685 157.927 224.742C159.522 222.929 161.009 220.935 162.387 218.76C163.837 216.584 165.251 214.263 166.629 211.798C166.847 211.507 167.028 211.362 167.173 211.362C167.463 211.362 167.608 211.58 167.608 212.015C167.608 212.378 167.536 212.668 167.391 212.885C166.085 215.279 164.707 217.672 163.257 220.065C161.807 222.458 160.03 224.706 157.927 226.809C156.984 227.752 155.86 228.586 154.555 229.311C153.322 230.036 151.908 230.399 150.312 230.399ZM163.583 187.648C162.786 187.648 162.097 187.358 161.517 186.778C161.009 186.198 160.755 185.509 160.755 184.711C160.755 183.696 161.154 182.789 161.952 181.992C162.822 181.194 163.765 180.723 164.78 180.578C165.578 180.578 166.23 180.868 166.738 181.448C167.318 181.955 167.608 182.644 167.608 183.515C167.608 184.457 167.209 185.4 166.412 186.343C165.614 187.213 164.671 187.648 163.583 187.648ZM206.538 230.399C204.363 230.399 202.695 229.746 201.534 228.441C200.374 227.063 199.794 225.359 199.794 223.328C199.794 221.08 200.374 218.832 201.534 216.584C202.695 214.263 204 212.015 205.45 209.84C206.973 207.664 208.315 205.597 209.475 203.639C210.636 201.681 211.216 199.94 211.216 198.418C211.216 197.837 211.071 197.33 210.781 196.895C210.49 196.387 209.947 196.133 209.149 196.133C206.828 196.133 204.399 197.221 201.861 199.397C199.395 201.5 197.002 204.219 194.681 207.555C192.36 210.891 190.257 214.372 188.372 217.998C186.559 221.624 185.145 224.96 184.129 228.006C182.969 227.716 182.171 227.281 181.736 226.7C181.374 226.048 181.192 225.359 181.192 224.634C181.192 223.473 181.337 222.349 181.627 221.261C181.99 220.174 182.534 218.832 183.259 217.237C183.984 215.641 184.927 213.611 186.087 211.145C187.248 208.607 188.626 205.343 190.221 201.355C190.439 200.774 190.584 200.267 190.656 199.832C190.729 199.397 190.765 198.998 190.765 198.635C190.765 196.967 190.076 196.133 188.698 196.133C186.958 196.133 185.181 196.858 183.368 198.309C181.555 199.687 179.778 201.536 178.038 203.857C176.37 206.177 174.774 208.679 173.251 211.362C171.728 214.046 170.35 216.693 169.118 219.303C167.885 221.842 166.87 224.053 166.072 225.939C165.347 227.607 164.476 228.695 163.461 229.202C162.446 229.638 161.467 229.855 160.524 229.855C160.234 229.855 159.871 229.819 159.436 229.746C159.074 229.746 158.711 229.746 158.348 229.746C159.799 226.846 161.322 223.691 162.917 220.282C164.585 216.801 166.108 213.32 167.486 209.84C168.864 206.359 169.988 203.023 170.858 199.832C171.728 196.641 172.163 193.885 172.163 191.564C172.163 191.274 172.127 191.057 172.055 190.912C172.055 190.767 172.055 190.622 172.055 190.477C172.055 190.259 172.127 190.15 172.272 190.15C172.997 190.15 173.578 190.622 174.013 191.564C174.448 192.435 174.738 193.45 174.883 194.61C175.101 195.698 175.209 196.568 175.209 197.221C175.209 199.034 174.992 200.92 174.557 202.878C174.122 204.763 173.614 206.359 173.034 207.664C175.79 203.965 178.618 200.811 181.519 198.2C184.492 195.589 187.429 194.284 190.33 194.284C192.288 194.284 193.702 194.683 194.572 195.48C195.443 196.278 195.878 197.402 195.878 198.853C195.878 199.868 195.696 200.883 195.334 201.899C195.044 202.914 194.536 204.292 193.811 206.032C196.567 202.261 199.25 199.36 201.861 197.33C204.544 195.299 207.191 194.284 209.802 194.284C211.905 194.284 213.464 194.755 214.479 195.698C215.567 196.641 216.111 197.91 216.111 199.505C216.111 201.246 215.531 203.313 214.37 205.706C213.283 208.026 212.013 210.456 210.563 212.994C209.113 215.46 207.807 217.817 206.647 220.065C205.559 222.24 205.015 224.053 205.015 225.504C205.015 226.302 205.197 227.027 205.559 227.68C205.922 228.332 206.574 228.659 207.517 228.659C208.75 228.659 209.91 228.26 210.998 227.462C212.158 226.592 213.137 225.685 213.935 224.742C215.603 222.929 217.126 220.935 218.504 218.76C219.954 216.511 221.369 214.154 222.746 211.689C222.964 211.399 223.109 211.254 223.182 211.254C223.472 211.254 223.617 211.58 223.617 212.233C223.617 212.668 223.544 212.994 223.399 213.212C222.094 215.605 220.716 217.962 219.265 220.282C217.815 222.531 216.038 224.706 213.935 226.809C212.992 227.752 211.905 228.586 210.672 229.311C209.439 230.036 208.061 230.399 206.538 230.399ZM232.39 230.617C228.183 230.617 225.21 229.529 223.47 227.353C222.599 226.41 221.983 225.286 221.62 223.981C221.258 222.676 221.076 221.334 221.076 219.956C221.076 218.216 221.294 216.475 221.729 214.735C222.164 212.922 222.708 211.254 223.361 209.731C224.376 207.338 225.718 204.944 227.386 202.551C229.054 200.086 231.048 198.019 233.369 196.351C235.762 194.683 238.373 193.849 241.201 193.849C243.086 193.849 244.573 194.32 245.661 195.263C246.749 196.206 247.293 197.656 247.293 199.614C247.293 201.862 246.604 204.147 245.226 206.467C243.848 208.715 242.107 210.601 240.004 212.124C237.901 213.647 235.726 214.408 233.477 214.408C231.447 214.408 229.67 213.683 228.147 212.233C227.712 213.393 227.349 214.698 227.059 216.149C226.769 217.527 226.624 218.941 226.624 220.391C226.624 222.639 227.059 224.597 227.93 226.265C228.872 227.933 230.54 228.767 232.934 228.767C234.674 228.767 236.342 228.332 237.937 227.462C239.605 226.519 241.092 225.395 242.397 224.09C243.848 222.567 245.226 220.935 246.531 219.195C247.836 217.454 249.106 215.424 250.338 213.103C250.483 212.885 250.592 212.777 250.665 212.777C250.955 212.777 251.1 213.103 251.1 213.756C251.1 214.191 250.955 214.662 250.665 215.17C249.577 217.128 248.308 219.122 246.857 221.153C245.407 223.111 243.92 224.815 242.397 226.265C241.02 227.571 239.533 228.622 237.937 229.42C236.342 230.218 234.493 230.617 232.39 230.617ZM228.691 210.601C229.199 211.326 229.779 211.87 230.432 212.233C231.157 212.523 231.882 212.668 232.607 212.668C234.348 212.668 236.161 212.015 238.046 210.71C239.932 209.332 241.455 207.736 242.615 205.923C243.123 205.126 243.558 204.074 243.92 202.769C244.355 201.463 244.573 200.231 244.573 199.07C244.573 198.055 244.355 197.185 243.92 196.46C243.558 195.662 242.796 195.263 241.636 195.263C240.331 195.263 238.771 196.061 236.958 197.656C235.218 199.252 233.55 201.318 231.955 203.857C231.447 204.727 230.867 205.742 230.214 206.902C229.634 208.063 229.126 209.296 228.691 210.601Z" fill="url(#paint1_radial_82_249)"/>
<defs>
<radialGradient id="paint0_radial_82_249" cx="0" cy="0" r="1" gradientUnits="userSpaceOnUse" gradientTransform="translate(76 27) rotate(90) scale(125 112)">
<stop stop-color="#7D573C"/>
<stop offset="0.5" stop-color="#DD9A6E"/>
<stop offset="1" stop-color="#A06B46"/>
</radialGradient>
<radialGradient id="paint1_radial_82_249" cx="0" cy="0" r="1" gradientUnits="userSpaceOnUse" gradientTransform="translate(158.978 147.746) rotate(90) scale(82 167)">
<stop stop-color="#7D573C"/>
<stop offset="0.5" stop-color="#DD9A6E"/>
<stop offset="1" stop-color="#A06B46"/>
</radialGradient>
</defs>
</svg>
